name analog
datacolumns 19
datarows 41
range 0.226 0.246
endheader
time	ground_force_vx	ground_force_vy	ground_force_vz	ground_force_px	ground_force_py	ground_force_pz	l_ground_force_vx	l_ground_force_vy	l_ground_force_vz	l_ground_force_px	l_ground_force_py	l_ground_force_pz	ground_torque_x	ground_torque_y	ground_torque_z	l_ground_torque_x	l_ground_torque_y	l_ground_torque_z
0.226	-0.0	-0.0	-0.0	-0.5428965091705322	17.3880558013916	-194.9250946044922	-0.6438809037208557	-15.35276985168457	-308.6800842285156	-0.0	-0.0	-0.0	-0.0	-0.0	-0.0	90587.734375	20359.9296875	-2231.7138671875
0.2265	-0.0	-0.0	-0.0	-1.6995909214019775	17.357370376586914	-193.72532653808597	-0.9024959206581116	-15.440974235534668	-307.92144775390625	-0.0	-0.0	-0.0	-0.0	-0.0	-0.0	90569.171875	20451.806640625	-2239.658203125
0.227	-0.0	-0.0	-0.0	-0.9813156127929688	17.624530792236328	-194.43353271484372	-0.4901802241802215	-15.440820693969728	-310.0899658203125	-0.0	-0.0	-0.0	-0.0	-0.0	-0.0	90143.0625	20358.861328125	-2182.73828125
0.2275	-0.0	-0.0	-0.0	-1.737174391746521	17.915210723876953	-195.0484313964844	-0.6523351073265076	-15.34455680847168	-306.2059936523437	-0.0	-0.0	-0.0	-0.0	-0.0	-0.0	89997.2109375	20487.484375	-2264.07177734375
0.228	-0.0	-0.0	-0.0	-1.4194698333740234	18.012231826782227	-195.81802368164065	-1.0250365734100342	-15.440567016601562	-305.7324523925781	-0.0	-0.0	-0.0	-0.0	-0.0	-0.0	89792.4140625	20396.79296875	-2237.377685546875
0.2285	-0.0	-0.0	-0.0	-1.954655408859253	18.158695220947266	-196.91067504882807	-0.6050243377685547	-15.022626876831056	-303.5697326660156	-0.0	-0.0	-0.0	-0.0	-0.0	-0.0	89497.6953125	20255.56640625	-2150.724609375
0.229	-0.0	-0.0	-0.0	-2.011619329452514	17.834117889404297	-198.4552764892578	-0.3950627744197845	-15.119025230407717	-303.3178100585937	-0.0	-0.0	-0.0	-0.0	-0.0	-0.0	89130.59375	19934.125	-2072.53466796875
0.2295	-0.0	-0.0	-0.0	-2.035634994506836	18.368959426879883	-199.38626098632807	-0.2904399037361145	-14.93443202972412	-301.7945556640625	-0.0	-0.0	-0.0	-0.0	-0.0	-0.0	88669.3359375	20077.154296875	-2031.9921875
0.23	-0.0	-0.0	-0.0	-2.1083288192749023	18.239038467407227	-199.1287078857422	-0.6687886714935303	-14.757864952087402	-302.3009033203125	-0.0	-0.0	-0.0	-0.0	-0.0	-0.0	88689.640625	19914.080078125	-2099.430419921875
0.2305	-0.0	-0.0	-0.0	-2.222022771835327	18.62002182006836	-200.82888793945312	-0.5157687067985535	-14.838043212890623	-300.9686889648437	-0.0	-0.0	-0.0	-0.0	-0.0	-0.0	88195.5859375	19673.603515625	-1994.3843994140625
0.231	-0.0	-0.0	-0.0	-2.132734775543213	18.628253936767575	-199.1605529785156	-0.2994323968887329	-14.636534690856934	-300.45574951171875	-0.0	-0.0	-0.0	-0.0	-0.0	-0.0	88285.3046875	19652.880859375	-2066.494140625
0.2315	-0.0	-0.0	-0.0	-2.230262756347656	19.60564994812012	-202.1517333984375	-0.1774215698242187	-14.34150218963623	-297.9583435058594	-0.0	-0.0	-0.0	-0.0	-0.0	-0.0	87631.9140625	19669.9140625	-1854.153564453125
0.232	-0.0	-0.0	-0.0	-1.940986156463623	19.808574676513672	-203.53195190429688	-0.0887107849121093	-14.724504470825195	-296.08056640625	-0.0	-0.0	-0.0	-0.0	-0.0	-0.0	87428.6640625	19405.625	-1917.849609375
0.2325	-0.0	-0.0	-0.0	-2.3831143379211426	19.87607955932617	-206.760986328125	-0.0887107849121093	-13.874987602233888	-294.1197814941406	-0.0	-0.0	-0.0	-0.0	-0.0	-0.0	86858.390625	19302.4609375	-1813.09375
0.233	-0.0	-0.0	-0.0	-2.166827917098999	20.90272331237793	-206.46116638183597	-0.5064998865127563	-14.034597396850586	-293.3549499511719	-0.0	-0.0	-0.0	-0.0	-0.0	-0.0	86172.375	19063.19140625	-1786.63916015625
0.2335	-0.0	-0.0	-0.0	-2.515197277069092	21.0234375	-209.97080993652344	0.0086475610733032	-14.114250183105469	-291.01348876953125	-0.0	-0.0	-0.0	-0.0	-0.0	-0.0	85502.25	19021.52734375	-1729.87646484375
0.234	-0.0	-0.0	-0.0	-2.4891653060913086	21.997766494750977	-211.20159912109372	-0.0	-14.122783660888672	-288.9945068359375	-0.0	-0.0	-0.0	-0.0	-0.0	-0.0	85172.3984375	18956.49609375	-1676.443115234375
0.23450000000000001	-0.0	-0.0	-0.0	-2.569509029388428	22.737041473388672	-214.06187438964844	0.2221672534942627	-14.016884803771973	-286.4081420898437	-0.0	-0.0	-0.0	-0.0	-0.0	-0.0	84437.5390625	18682.845703125	-1528.029541015625
0.23500000000000001	-0.0	-0.0	-0.0	-2.6674399375915527	23.36989974975586	-215.29920959472656	0.1951616257429123	-14.113807678222656	-284.6982421875	-0.0	-0.0	-0.0	-0.0	-0.0	-0.0	83517.546875	18477.162109375	-1623.1041259765625
0.23550000000000001	-0.0	-0.0	-0.0	-2.9439468383789062	24.599857330322266	-217.558837890625	0.257203459739685	-13.63709831237793	-282.7776794433594	-0.0	-0.0	-0.0	-0.0	-0.0	-0.0	82981.7109375	18020.658203125	-1560.5462646484375
0.23600000000000002	-0.0	-0.0	-0.0	-2.35545015335083	24.96549797058105	-221.5121307373047	0.4255774617195129	-13.74355411529541	-280.3334045410156	-0.0	-0.0	-0.0	-0.0	-0.0	-0.0	82681.875	17895.439453125	-1394.7841796875
0.23650000000000002	-0.0	-0.0	-0.0	-3.291717290878296	25.936946868896484	-219.4683990478516	0.4435539245605469	-13.619590759277344	-279.7774963378906	-0.0	-0.0	-0.0	-0.0	-0.0	-0.0	82252.9375	17820.287109375	-1420.9552001953125
0.23700000000000002	-0.0	-0.0	-0.0	-3.0422980785369877	26.48086166381836	-223.69895935058597	0.0182676911354064	-13.671673774719238	-277.44207763671875	-0.0	-0.0	-0.0	-0.0	-0.0	-0.0	81817.5234375	17761.828125	-1640.211669921875
0.23750000000000002	-0.0	-0.0	-0.0	-2.934746742248535	27.6735954284668	-224.0142974853516	0.0979037955403328	-13.406590461730955	-276.0106811523437	-0.0	-0.0	-0.0	-0.0	-0.0	-0.0	81346.515625	17416.87109375	-1483.4635009765625
0.23800000000000002	-0.0	-0.0	-0.0	-3.193023204803467	27.470703125	-224.41616821289065	0.2568623423576355	-13.090067863464355	-274.4696655273437	-0.0	-0.0	-0.0	-0.0	-0.0	-0.0	80643.125	17269.041015625	-1500.5091552734375
0.23850000000000002	-0.0	-0.0	-0.0	-2.6389269828796387	28.324790954589844	-225.5339508056641	0.6209754943847656	-12.973989486694336	-273.6613464355469	-0.0	-0.0	-0.0	-0.0	-0.0	-0.0	80396.6875	17454.4765625	-1367.3995361328125
0.23900000000000002	-0.0	-0.0	-0.0	-2.8076138496398926	29.27682113647461	-227.09469604492188	0.5416808128356934	-12.708948135375977	-271.327880859375	-0.0	-0.0	-0.0	-0.0	-0.0	-0.0	80064.296875	16904.470703125	-1423.568115234375
0.23950000000000002	-0.0	-0.0	-0.0	-2.995222568511963	29.68427848815918	-229.8074951171875	0.4435539245605469	-12.72775650024414	-269.1959228515625	-0.0	-0.0	-0.0	-0.0	-0.0	-0.0	79587.6875	16989.955078125	-1317.64013671875
0.24	-0.0	-0.0	-0.0	-2.6252763271331787	30.01787757873535	-230.97967529296875	0.6305092573165894	-12.658476829528809	-268.2610168457031	-0.0	-0.0	-0.0	-0.0	-0.0	-0.0	79408.5859375	16837.849609375	-1258.220458984375
0.2405	-0.0	-0.0	-0.0	-2.2591238021850586	30.15753555297852	-230.70266723632807	0.2949647009372711	-12.964150428771973	-268.1106262207031	-0.0	-0.0	-0.0	-0.0	-0.0	-0.0	78748.921875	16347.42578125	-1172.835693359375
0.241	-0.0	-0.0	-0.0	-2.309784173965454	30.335384368896484	-232.9757232666016	0.6016169786453247	-12.472631454467772	-265.70440673828125	-0.0	-0.0	-0.0	-0.0	-0.0	-0.0	78346.7734375	16214.4638671875	-1156.401123046875
0.2415	-0.0	-0.0	-0.0	-2.4686503410339355	30.869813919067383	-234.3126678466797	1.1824535131454468	-12.41457748413086	-263.8011169433594	-0.0	-0.0	-0.0	-0.0	-0.0	-0.0	77989.375	15748.0888671875	-1179.105224609375
0.242	-0.0	-0.0	-0.0	-1.9626312255859373	30.92824935913086	-236.47496032714844	1.685504913330078	-12.296257972717283	-263.0657043457031	-0.0	-0.0	-0.0	-0.0	-0.0	-0.0	77446.9140625	15452.87890625	-944.60986328125
0.2425	-0.0	-0.0	-0.0	-2.289818525314331	31.225515365600582	-236.15997314453125	2.266984701156616	-12.678999900817873	-262.2517395019531	-0.0	-0.0	-0.0	-0.0	-0.0	-0.0	77130.0703125	15336.1689453125	-776.1749877929688
0.243	-0.0	-0.0	-0.0	-1.814097285270691	31.68065643310547	-238.16159057617188	2.3454365730285645	-12.38485050201416	-260.8162841796875	-0.0	-0.0	-0.0	-0.0	-0.0	-0.0	76980.6953125	14765.09765625	-677.0955810546875
0.2435	-0.0	-0.0	-0.0	-1.5176509618759155	31.89866065979004	-238.2021331787109	2.6312646865844727	-12.384987831115724	-261.7059631347656	-0.0	-0.0	-0.0	-0.0	-0.0	-0.0	76519.1640625	14683.71484375	-594.5552368164062
0.244	-0.0	-0.0	-0.0	-1.7034852504730225	31.87843894958496	-240.98855590820312	3.006088256835937	-12.35500144958496	-260.42742919921875	-0.0	-0.0	-0.0	-0.0	-0.0	-0.0	76362.015625	14200.3154296875	-663.0523071289062
0.2445	-0.0	-0.0	-0.0	-1.763874053955078	32.29338455200195	-243.1799468994141	2.8692116737365723	-12.10007095336914	-259.6089172363281	-0.0	-0.0	-0.0	-0.0	-0.0	-0.0	76303.765625	14199.2490234375	-367.1889953613281
0.245	-0.0	-0.0	-0.0	-1.84270977973938	32.17607879638672	-243.30044555664065	2.712443351745605	-11.807859420776367	-259.72857666015625	-0.0	-0.0	-0.0	-0.0	-0.0	-0.0	76528.890625	14125.82421875	-442.6119079589844
0.2455	-0.0	-0.0	-0.0	-1.784210205078125	32.27549362182617	-242.3629608154297	2.8078949451446533	-11.533010482788086	-260.6948547363281	-0.0	-0.0	-0.0	-0.0	-0.0	-0.0	76537.1640625	14515.8447265625	-567.98779296875
0.246	-0.0	-0.0	-0.0	-2.3464386463165283	32.10767364501953	-244.6715545654297	2.2650387287139893	-11.627517700195312	-260.15875244140625	-0.0	-0.0	-0.0	-0.0	-0.0	-0.0	76584.8203125	14101.283203125	-647.0225219726562
